<svg width="50" height="46" viewBox="0 0 50 46" fill="none" xmlns="http://www.w3.org/2000/svg">
<g filter="url(#filter0_ddd_404_1408)">
<path fill-rule="evenodd" clip-rule="evenodd" d="M35.8899 24.5234C36.3024 24.5234 36.6981 24.3629 36.9898 24.0771C37.2814 23.7914 37.4453 23.4039 37.4453 22.9998C37.4453 22.5958 37.2814 22.2083 36.9898 21.9225C36.6981 21.6368 36.3024 21.4763 35.8899 21.4763L17.8693 21.4763L24.5481 14.9373C24.6927 14.7956 24.8074 14.6275 24.8857 14.4424C24.9639 14.2573 25.0042 14.059 25.0042 13.8586C25.0042 13.6583 24.9639 13.4599 24.8857 13.2749C24.8074 13.0898 24.6927 12.9216 24.5481 12.78C24.4035 12.6383 24.2318 12.5259 24.0428 12.4493C23.8539 12.3726 23.6514 12.3332 23.4469 12.3332C23.2424 12.3332 23.0399 12.3726 22.8509 12.4493C22.662 12.5259 22.4903 12.6383 22.3457 12.78L13.0134 21.9212C12.8685 22.0627 12.7536 22.2308 12.6752 22.4159C12.5968 22.601 12.5564 22.7994 12.5564 22.9998C12.5564 23.2002 12.5968 23.3987 12.6752 23.5838C12.7536 23.7689 12.8685 23.937 13.0134 24.0785L22.3457 33.2197C22.4903 33.3614 22.662 33.4737 22.8509 33.5504C23.0399 33.627 23.2424 33.6665 23.4469 33.6665C23.6514 33.6665 23.8539 33.627 24.0428 33.5504C24.2318 33.4737 24.4035 33.3614 24.5481 33.2197C24.6927 33.0781 24.8074 32.9099 24.8857 32.7248C24.9639 32.5397 25.0042 32.3414 25.0042 32.141C25.0042 31.9407 24.9639 31.7424 24.8857 31.5573C24.8074 31.3722 24.6927 31.204 24.5481 31.0624L17.8693 24.5234L35.8899 24.5234Z" fill="#FFC700"/>
</g>
<defs>
<filter id="filter0_ddd_404_1408" x="0.556641" y="0.33313" width="48.8887" height="45.3334" filterUnits="userSpaceOnUse" color-interpolation-filters="sRGB">
<feFlood flood-opacity="0" result="BackgroundImageFix"/>
<feColorMatrix in="SourceAlpha" type="matrix" values="0 0 0 0 0 0 0 0 0 0 0 0 0 0 0 0 0 0 127 0" result="hardAlpha"/>
<feOffset/>
<feGaussianBlur stdDeviation="6"/>
<feComposite in2="hardAlpha" operator="out"/>
<feColorMatrix type="matrix" values="0 0 0 0 1 0 0 0 0 0.721569 0 0 0 0 0 0 0 0 0.2 0"/>
<feBlend mode="normal" in2="BackgroundImageFix" result="effect1_dropShadow_404_1408"/>
<feColorMatrix in="SourceAlpha" type="matrix" values="0 0 0 0 0 0 0 0 0 0 0 0 0 0 0 0 0 0 127 0" result="hardAlpha"/>
<feOffset/>
<feGaussianBlur stdDeviation="4"/>
<feComposite in2="hardAlpha" operator="out"/>
<feColorMatrix type="matrix" values="0 0 0 0 1 0 0 0 0 0.721569 0 0 0 0 0 0 0 0 0.1 0"/>
<feBlend mode="normal" in2="effect1_dropShadow_404_1408" result="effect2_dropShadow_404_1408"/>
<feColorMatrix in="SourceAlpha" type="matrix" values="0 0 0 0 0 0 0 0 0 0 0 0 0 0 0 0 0 0 127 0" result="hardAlpha"/>
<feOffset/>
<feGaussianBlur stdDeviation="2"/>
<feComposite in2="hardAlpha" operator="out"/>
<feColorMatrix type="matrix" values="0 0 0 0 1 0 0 0 0 0.721569 0 0 0 0 0 0 0 0 0.1 0"/>
<feBlend mode="normal" in2="effect2_dropShadow_404_1408" result="effect3_dropShadow_404_1408"/>
<feBlend mode="normal" in="SourceGraphic" in2="effect3_dropShadow_404_1408" result="shape"/>
</filter>
</defs>
</svg>
