<svg width="51" height="41" viewBox="0 0 51 41" fill="none" xmlns="http://www.w3.org/2000/svg">
<path d="M42.7929 40.5L50.5 32.7929V3.20711L48.7929 1.5H15.2071L1.5 15.2071V37.7929L4.20711 40.5H42.7929Z" fill="#101010" fill-opacity="0.8" stroke="#FFC700"/>
<g filter="url(#filter0_d_1_167)">
<path d="M4.5 25.5V17L16.5 4.5H38.5" stroke="#F4C625" stroke-linecap="square"/>
</g>
<g clip-path="url(#clip0_1_167)">
<g filter="url(#filter1_d_1_167)">
<path d="M36.5083 29.4343L32.254 19.0792C32.1754 18.888 32.0421 18.7245 31.871 18.6095C31.6999 18.4944 31.4986 18.433 31.2927 18.433C31.0869 18.433 30.8856 18.4944 30.7145 18.6095C30.5434 18.7245 30.4101 18.888 30.3315 19.0792L26.0772 29.4343C26.0243 29.5613 25.9969 29.6976 25.9965 29.8352C25.9962 29.9729 26.0229 30.1093 26.0752 30.2365C26.1274 30.3638 26.2042 30.4794 26.3011 30.5768C26.3979 30.6741 26.513 30.7513 26.6396 30.8038C26.7663 30.8563 26.902 30.8832 27.039 30.8829C27.176 30.8825 27.3115 30.855 27.4379 30.8019C27.5643 30.7487 27.679 30.671 27.7754 30.5732C27.8718 30.4754 27.948 30.3594 27.9997 30.2319L28.8661 28.1233H33.7194L34.5858 30.2319C34.6644 30.4232 34.7977 30.5868 34.9689 30.7019C35.14 30.8169 35.3413 30.8784 35.5473 30.8783C35.7182 30.8782 35.8864 30.8358 36.0371 30.7548C36.1878 30.6739 36.3163 30.5568 36.4113 30.4141C36.5062 30.2713 36.5647 30.1072 36.5816 29.9363C36.5984 29.7655 36.5731 29.593 36.5078 29.4343H36.5083ZM29.725 26.0333L31.293 22.2166L32.8609 26.0333H29.725ZM26.5584 25.127C26.7199 24.9027 26.7863 24.6232 26.743 24.3498C26.6997 24.0764 26.5501 23.8315 26.3272 23.6687C26.3178 23.6616 25.6182 23.1401 24.6023 22.019C26.4766 19.4692 27.5383 16.5684 27.9713 15.2032H29.4967C29.7725 15.2032 30.037 15.0931 30.2321 14.8971C30.4271 14.7011 30.5367 14.4353 30.5367 14.1582C30.5367 13.881 30.4271 13.6152 30.2321 13.4193C30.037 13.2233 29.7725 13.1132 29.4967 13.1132H24.0134V12.1632C24.0134 11.886 23.9038 11.6202 23.7088 11.4242C23.5137 11.2283 23.2492 11.1182 22.9734 11.1182C22.6976 11.1182 22.4331 11.2283 22.2381 11.4242C22.043 11.6202 21.9335 11.886 21.9335 12.1632V13.1132H16.4501C16.1743 13.1132 15.9098 13.2233 15.7147 13.4193C15.5197 13.6152 15.4102 13.881 15.4102 14.1582C15.4102 14.4353 15.5197 14.7011 15.7147 14.8971C15.9098 15.0931 16.1743 15.2032 16.4501 15.2032H25.7742C25.3242 16.4833 24.4955 18.5045 23.2315 20.3504C21.7467 18.3705 21.1951 17.0894 21.1908 17.079C21.0821 16.8266 20.8788 16.6274 20.6249 16.5246C20.371 16.4219 20.087 16.4239 19.8346 16.5301C19.5821 16.6364 19.3816 16.8384 19.2764 17.0923C19.1712 17.3462 19.1698 17.6316 19.2726 17.8865C19.3 17.9521 19.9604 19.5124 21.7713 21.8732C21.8148 21.9297 21.8578 21.9848 21.9008 22.0399C20.046 24.1466 18.226 25.4533 17.4645 25.8751C17.2224 26.0078 17.0426 26.2318 16.9648 26.4977C16.8869 26.7636 16.9174 27.0497 17.0495 27.293C17.1816 27.5363 17.4044 27.717 17.669 27.7952C17.9337 27.8734 18.2184 27.8428 18.4605 27.7101C18.5626 27.654 20.7578 26.4328 23.2646 23.6445C24.3291 24.7883 25.0609 25.3279 25.1048 25.3593C25.2154 25.44 25.3408 25.498 25.4737 25.53C25.6067 25.562 25.7446 25.5674 25.8796 25.5458C26.0146 25.5241 26.1441 25.476 26.2605 25.404C26.377 25.3321 26.4782 25.2378 26.5584 25.1265V25.127Z" fill="#F4C625"/>
</g>
</g>
<defs>
<filter id="filter0_d_1_167" x="0" y="0" width="43" height="30" filterUnits="userSpaceOnUse" color-interpolation-filters="sRGB">
<feFlood flood-opacity="0" result="BackgroundImageFix"/>
<feColorMatrix in="SourceAlpha" type="matrix" values="0 0 0 0 0 0 0 0 0 0 0 0 0 0 0 0 0 0 127 0" result="hardAlpha"/>
<feOffset/>
<feGaussianBlur stdDeviation="2"/>
<feColorMatrix type="matrix" values="0 0 0 0 0.116667 0 0 0 0 0.116667 0 0 0 0 0.116667 0 0 0 0.4 0"/>
<feBlend mode="normal" in2="BackgroundImageFix" result="effect1_dropShadow_1_167"/>
<feBlend mode="normal" in="SourceGraphic" in2="effect1_dropShadow_1_167" result="shape"/>
</filter>
<filter id="filter1_d_1_167" x="7.41016" y="3.11816" width="37.1765" height="35.7647" filterUnits="userSpaceOnUse" color-interpolation-filters="sRGB">
<feFlood flood-opacity="0" result="BackgroundImageFix"/>
<feColorMatrix in="SourceAlpha" type="matrix" values="0 0 0 0 0 0 0 0 0 0 0 0 0 0 0 0 0 0 127 0" result="hardAlpha"/>
<feOffset/>
<feGaussianBlur stdDeviation="4"/>
<feComposite in2="hardAlpha" operator="out"/>
<feColorMatrix type="matrix" values="0 0 0 0 1 0 0 0 0 0.721569 0 0 0 0 0 0 0 0 0.2 0"/>
<feBlend mode="normal" in2="BackgroundImageFix" result="effect1_dropShadow_1_167"/>
<feBlend mode="normal" in="SourceGraphic" in2="effect1_dropShadow_1_167" result="shape"/>
</filter>
<clipPath id="clip0_1_167">
<rect width="24" height="24" fill="white" transform="translate(14 9)"/>
</clipPath>
</defs>
</svg>
