<svg width="57" height="58" viewBox="0 0 57 58" fill="none" xmlns="http://www.w3.org/2000/svg">
<path d="M0 29L28.2843 0.715729L56.5685 29L49.4975 36.0711L28.2843 57.2843L0 29Z" fill="#181404"/>
<path d="M0.707107 29L28.2843 1.42284L55.8614 29L49.1439 35.7175L28.2843 56.5772L0.707107 29Z" stroke="#F4C625" stroke-opacity="0.3"/>
<path d="M28.2849 19C28.6164 19 28.9344 19.1317 29.1688 19.3661C29.4032 19.6005 29.5349 19.9185 29.5349 20.25V27.75H37.0349C37.3664 27.75 37.6844 27.8817 37.9188 28.1161C38.1532 28.3505 38.2849 28.6685 38.2849 29C38.2849 29.3315 38.1532 29.6495 37.9188 29.8839C37.6844 30.1183 37.3664 30.25 37.0349 30.25H29.5349V37.75C29.5349 38.0815 29.4032 38.3995 29.1688 38.6339C28.9344 38.8683 28.6164 39 28.2849 39C27.9534 39 27.6354 38.8683 27.401 38.6339C27.1666 38.3995 27.0349 38.0815 27.0349 37.75V30.25H19.5349C19.2034 30.25 18.8854 30.1183 18.651 29.8839C18.4166 29.6495 18.2849 29.3315 18.2849 29C18.2849 28.6685 18.4166 28.3505 18.651 28.1161C18.8854 27.8817 19.2034 27.75 19.5349 27.75H27.0349V20.25C27.0349 19.9185 27.1666 19.6005 27.401 19.3661C27.6354 19.1317 27.9534 19 28.2849 19Z" fill="#F4C625"/>
</svg>
